<svg width="20" height="20" viewBox="0 0 20 20" fill="none" xmlns="http://www.w3.org/2000/svg">
<rect width="20" height="20" rx="10" fill="#7DB54F"/>
<path d="M6.13089 11.76H7.53089V6.92L7.63089 6.33L7.23089 6.8L6.13089 7.59L5.75089 7.08L7.95089 5.38H8.31089V11.76H9.68089V12.5H6.13089V11.76ZM13.9601 7.09C13.9601 7.44333 13.8934 7.80667 13.7601 8.18C13.6334 8.54667 13.4634 8.91667 13.2501 9.29C13.0434 9.66333 12.8101 10.03 12.5501 10.39C12.2901 10.7433 12.0301 11.08 11.7701 11.4L11.2801 11.83V11.87L11.9201 11.76H14.1001V12.5H10.1201V12.21C10.2668 12.0567 10.4434 11.8667 10.6501 11.64C10.8568 11.4133 11.0701 11.1633 11.2901 10.89C11.5168 10.61 11.7368 10.3167 11.9501 10.01C12.1701 9.69667 12.3668 9.38 12.5401 9.06C12.7201 8.74 12.8634 8.42333 12.9701 8.11C13.0768 7.79667 13.1301 7.5 13.1301 7.22C13.1301 6.89333 13.0368 6.62333 12.8501 6.41C12.6634 6.19 12.3801 6.08 12.0001 6.08C11.7468 6.08 11.5001 6.13333 11.2601 6.24C11.0201 6.34 10.8134 6.45667 10.6401 6.59L10.3101 6.02C10.5434 5.82 10.8201 5.66333 11.1401 5.55C11.4601 5.43667 11.8034 5.38 12.1701 5.38C12.4568 5.38 12.7101 5.42333 12.9301 5.51C13.1501 5.59 13.3368 5.70667 13.4901 5.86C13.6434 6.01333 13.7601 6.19667 13.8401 6.41C13.9201 6.61667 13.9601 6.84333 13.9601 7.09Z" fill="white"/>
</svg>
